<svg width="14" height="24" viewBox="0 0 14 24" fill="none" xmlns="http://www.w3.org/2000/svg">
<path fill-rule="evenodd" clip-rule="evenodd" d="M6.51429 0C8.39882 0 9.92653 1.51535 9.92653 3.38462V12.0336C11.7862 13.1701 13.0286 15.209 13.0286 17.5385C13.0286 21.1071 10.112 24 6.51429 24C2.91654 24 0 21.1071 0 17.5385C0 15.209 1.24237 13.1701 3.10204 12.0336V3.38462C3.10204 1.51534 4.62976 0 6.51429 0ZM4.65306 12.9732C2.83413 13.7036 1.55102 15.4724 1.55102 17.5385C1.55102 20.2574 3.77315 22.4615 6.51429 22.4615C9.25542 22.4615 11.4776 20.2574 11.4776 17.5385C11.4776 15.4724 10.1944 13.7036 8.37551 12.9732V3.38462C8.37551 2.36501 7.54221 1.53846 6.51429 1.53846C5.48636 1.53846 4.65306 2.36501 4.65306 3.38462V12.9732Z" fill="#2BADFE"/>
<path d="M10.6286 17.4857C10.6286 19.758 8.78657 21.6 6.51431 21.6C4.24205 21.6 2.40002 19.758 2.40002 17.4857C2.40002 15.2135 4.24205 13.3714 6.51431 13.3714C8.78657 13.3714 10.6286 15.2135 10.6286 17.4857Z" fill="url(#paint0_linear)"/>
<path d="M7.54288 11.3143C7.54288 10.7462 7.08237 10.2857 6.51431 10.2857C5.94625 10.2857 5.48574 10.7462 5.48574 11.3143V16.1143C5.48574 16.6823 5.94625 17.1429 6.51431 17.1429C7.08237 17.1429 7.54288 16.6823 7.54288 16.1143V11.3143Z" fill="url(#paint1_linear)"/>
<defs>
<linearGradient id="paint0_linear" x1="2.02859" y1="11" x2="11.0286" y2="22" gradientUnits="userSpaceOnUse">
<stop stop-color="#2BADFE"/>
<stop offset="0.96221" stop-color="#B858E1"/>
</linearGradient>
<linearGradient id="paint1_linear" x1="2.02859" y1="11" x2="11.0286" y2="22" gradientUnits="userSpaceOnUse">
<stop stop-color="#2BADFE"/>
<stop offset="0.96221" stop-color="#B858E1"/>
</linearGradient>
</defs>
</svg>
