<svg width="23" height="24" viewBox="0 0 23 24" fill="none" xmlns="http://www.w3.org/2000/svg">
<path d="M11.5 21C10.8819 20.428 10.1833 19.833 9.44438 19.2H9.43479C6.83292 16.98 3.88413 14.468 2.58175 11.458C2.15387 10.4997 1.92712 9.45712 1.91666 8.4C1.9138 6.94948 2.47132 5.55898 3.46323 4.54276C4.45514 3.52654 5.79771 2.97039 7.1875 3C8.31894 3.00186 9.42601 3.34308 10.3768 3.983C10.7946 4.26596 11.1727 4.60825 11.5 5C11.8292 4.60979 12.2073 4.2677 12.6241 3.983C13.5745 3.34295 14.6813 3.00171 15.8125 3C17.2023 2.97039 18.5449 3.52654 19.5368 4.54276C20.5287 5.55898 21.0862 6.94948 21.0833 8.4C21.0736 9.45881 20.8468 10.5032 20.4182 11.463C19.1159 14.473 16.168 16.984 13.5662 19.2L13.5566 19.208C12.8167 19.837 12.1191 20.432 11.501 21.008L11.5 21ZM7.1875 5C6.29482 4.98834 5.43382 5.34484 4.79167 5.992C4.17295 6.62616 3.82716 7.49504 3.83325 8.4C3.84419 9.1705 4.01142 9.92985 4.324 10.628C4.93878 11.9267 5.76831 13.102 6.77446 14.1C7.72417 15.1 8.81667 16.068 9.76158 16.882C10.0232 17.107 10.2896 17.334 10.556 17.561L10.7238 17.704C10.9796 17.922 11.2441 18.148 11.5 18.37L11.5125 18.358L11.5182 18.353H11.524L11.5326 18.346H11.5374H11.5422L11.5594 18.331L11.5987 18.298L11.6054 18.292L11.616 18.284H11.6217L11.6303 18.276L12.2667 17.731L12.4334 17.588C12.7027 17.359 12.9691 17.132 13.2308 16.907C14.1757 16.093 15.2691 15.126 16.2188 14.121C17.2251 13.1236 18.0547 11.9485 18.6693 10.65C18.9875 9.9458 19.1571 9.1785 19.1667 8.4C19.1707 7.49783 18.825 6.63229 18.2083 6C17.5674 5.34992 16.7063 4.99048 15.8125 5C14.7218 4.99032 13.6792 5.46736 12.9471 6.311L11.5 8.051L10.0529 6.311C9.32081 5.46736 8.27816 4.99032 7.1875 5Z" fill="#3E5B73"/>
</svg>
