<svg width="336" height="57" viewBox="0 0 336 57" fill="none" xmlns="http://www.w3.org/2000/svg">
<path d="M333.982 56.4999C334.81 56.5098 335.49 55.8463 335.5 55.0179C335.51 54.1896 334.846 53.51 334.018 53.5001L333.982 56.4999ZM1 2.1698C1.07824 3.66776 1.07819 3.66776 1.07841 3.66775C1.07885 3.66773 1.07935 3.6677 1.08022 3.66766C1.08197 3.66757 1.08481 3.66742 1.08874 3.66723C1.09659 3.66683 1.10878 3.66622 1.12528 3.66542C1.15828 3.66381 1.20852 3.66142 1.27576 3.65838C1.41024 3.6523 1.61271 3.64363 1.8812 3.63343C2.41818 3.61305 3.21925 3.58657 4.26873 3.56259C6.36772 3.51462 9.46019 3.4766 13.4208 3.51711C21.3425 3.59813 32.7349 3.99327 46.596 5.25066C74.3235 7.76594 111.901 13.7291 151.326 27.5133L152.316 24.6814C112.597 10.7942 74.764 4.79358 46.867 2.26293C32.9159 0.997367 21.4426 0.599001 13.4515 0.517268C9.4558 0.476399 6.33019 0.514691 4.20018 0.563371C3.13516 0.587711 2.319 0.61465 1.76738 0.635593C1.49157 0.646065 1.28189 0.655037 1.1403 0.661437C1.06951 0.664637 1.01573 0.667194 0.979228 0.668973C0.960975 0.669863 0.947039 0.670558 0.937451 0.671043C0.932656 0.671285 0.928949 0.671474 0.926332 0.671608C0.925024 0.671676 0.92388 0.671735 0.923226 0.671769C0.922355 0.671814 0.921758 0.671845 1 2.1698ZM151.326 27.5133C191.057 41.4048 236.733 48.6456 272.432 52.4172C290.29 54.304 305.671 55.3245 316.589 55.8734C322.048 56.1478 326.392 56.3044 329.374 56.3924C330.865 56.4364 332.015 56.4632 332.793 56.4791C333.182 56.487 333.478 56.4922 333.678 56.4954C333.778 56.497 333.853 56.4981 333.904 56.4989C333.929 56.4992 333.949 56.4995 333.962 56.4996C333.968 56.4997 333.973 56.4998 333.977 56.4998C333.978 56.4998 333.98 56.4999 333.981 56.4999C333.981 56.4999 333.982 56.4999 334 55C334.018 53.5001 334.018 53.5001 334.017 53.5001C334.016 53.5001 334.015 53.5001 334.014 53.5001C334.011 53.5 334.007 53.5 334.001 53.4999C333.989 53.4997 333.97 53.4995 333.946 53.4991C333.897 53.4985 333.824 53.4974 333.726 53.4958C333.531 53.4927 333.239 53.4876 332.854 53.4797C332.084 53.464 330.944 53.4374 329.462 53.3937C326.5 53.3063 322.176 53.1505 316.739 52.8772C305.865 52.3305 290.54 51.3137 272.747 49.4338C237.141 45.6719 191.728 38.4614 152.316 24.6814L151.326 27.5133Z" fill="white"/>
</svg>
