<svg width="16" height="19" viewBox="0 0 16 19" fill="none" xmlns="http://www.w3.org/2000/svg">
<path fill-rule="evenodd" clip-rule="evenodd" d="M5 3C5 1.34315 6.34315 0 8 0C9.65685 0 11 1.34315 11 3V3.5C11 5.433 9.433 7 7.5 7H1C0.447715 7 0 6.55228 0 6C0 5.44772 0.447715 5 1 5H7.5C8.32843 5 9 4.32843 9 3.5V3C9 2.44772 8.55228 2 8 2C7.44772 2 7 2.44772 7 3V3.27273C7 3.82501 6.55228 4.27273 6 4.27273C5.44772 4.27273 5 3.82501 5 3.27273V3ZM9 15.5C9 17.433 10.567 19 12.5 19C14.433 19 16 17.433 16 15.5V15C16 12.7909 14.2091 11 12 11H2C1.44772 11 1 11.4477 1 12C1 12.5523 1.44772 13 2 13H12C13.1046 13 14 13.8954 14 15V15.5C14 16.3284 13.3284 17 12.5 17C11.6716 17 11 16.3284 11 15.5V15C11 14.4477 10.5523 14 10 14C9.44772 14 9 14.4477 9 15V15.5ZM3 8C2.44772 8 2 8.44772 2 9C2 9.55228 2.44772 10 3 10H13C13.5523 10 14 9.55228 14 9C14 8.44772 13.5523 8 13 8H3Z" fill="#2BADFE"/>
</svg>
